REM DIRINDEX 1\2\6,1\2\7,1\2\8,1\2\9,1\3\10,1\3\11,1\4\12,1\4\13,1\4\14,1\5\15,1\5\16,1\5\17
REM DIRNAME folder01,folder02,folder03,folder04,folder05,folder06,folder07,folder08,folder09,folder10,folder11,folder12,folder13,folder14,folder15,folder16,folder17
TITLE ""
FILE "1400_3_sec08_0718_0734.mp3" MP3
  TRACK 01 AUDIO
    TITLE "0:"
    INDEX 01 00:00:00
  TRACK 02 AUDIO
    TITLE "17:cjc029_5870"
    INDEX 01 00:00:15
  TRACK 03 AUDIO
    TITLE "0:"
    INDEX 01 00:01:50
  TRACK 04 AUDIO
    TITLE "16:cjc029_5871"
    INDEX 01 00:01:56
  TRACK 05 AUDIO
    TITLE "0:"
    INDEX 01 00:03:06
  TRACK 06 AUDIO
    TITLE "17:cjc029_5872"
    INDEX 01 00:03:64
  TRACK 07 AUDIO
    TITLE "0:"
    INDEX 01 00:05:01
  TRACK 08 AUDIO
    TITLE "16:cjc029_5873"
    INDEX 01 00:05:07
  TRACK 09 AUDIO
    TITLE "0:"
    INDEX 01 00:06:24
  TRACK 10 AUDIO
    TITLE "17:cjc029_5874"
    INDEX 01 00:07:09
  TRACK 11 AUDIO
    TITLE "0:"
    INDEX 01 00:08:05
  TRACK 12 AUDIO
    TITLE "16:cjc029_5875"
    INDEX 01 00:08:11
  TRACK 13 AUDIO
    TITLE "0:"
    INDEX 01 00:09:16
  TRACK 14 AUDIO
    TITLE "17:cjc029_5876"
    INDEX 01 00:10:00
  TRACK 15 AUDIO
    TITLE "0:"
    INDEX 01 00:11:29
  TRACK 16 AUDIO
    TITLE "16:cjc029_5877"
    INDEX 01 00:11:35
  TRACK 17 AUDIO
    TITLE "0:"
    INDEX 01 00:12:56
  TRACK 18 AUDIO
    TITLE "17:cjc029_5878"
    INDEX 01 00:13:43
  TRACK 19 AUDIO
    TITLE "0:"
    INDEX 01 00:15:36
  TRACK 20 AUDIO
    TITLE "16:cjc029_5879"
    INDEX 01 00:15:40
  TRACK 21 AUDIO
    TITLE "0:"
    INDEX 01 00:16:55
  TRACK 22 AUDIO
    TITLE "17:cjc029_5880"
    INDEX 01 00:17:37
  TRACK 23 AUDIO
    TITLE "0:"
    INDEX 01 00:19:07
  TRACK 24 AUDIO
    TITLE "16:cjc029_5881"
    INDEX 01 00:19:13
  TRACK 25 AUDIO
    TITLE "0:"
    INDEX 01 00:20:26
  TRACK 26 AUDIO
    TITLE "17:cjc029_5882"
    INDEX 01 00:21:09
  TRACK 27 AUDIO
    TITLE "0:"
    INDEX 01 00:23:18
  TRACK 28 AUDIO
    TITLE "16:cjc029_5883"
    INDEX 01 00:23:26
  TRACK 29 AUDIO
    TITLE "0:"
    INDEX 01 00:24:41
  TRACK 30 AUDIO
    TITLE "17:cjc029_5884"
    INDEX 01 00:25:25
  TRACK 31 AUDIO
    TITLE "0:"
    INDEX 01 00:26:62
  TRACK 32 AUDIO
    TITLE "16:cjc029_5885"
    INDEX 01 00:26:69
  TRACK 33 AUDIO
    TITLE "0:"
    INDEX 01 00:28:12
  TRACK 34 AUDIO
    TITLE "17:cjc029_5886"
    INDEX 01 00:28:70
  TRACK 35 AUDIO
    TITLE "0:"
    INDEX 01 00:31:43
  TRACK 36 AUDIO
    TITLE "16:cjc029_5887"
    INDEX 01 00:31:49
  TRACK 37 AUDIO
    TITLE "0:"
    INDEX 01 00:32:58
  TRACK 38 AUDIO
    TITLE "17:cjc029_5888"
    INDEX 01 00:33:44
  TRACK 39 AUDIO
    TITLE "0:"
    INDEX 01 00:34:69
  TRACK 40 AUDIO
    TITLE "16:cjc029_5889"
    INDEX 01 00:35:02
  TRACK 41 AUDIO
    TITLE "0:"
    INDEX 01 00:36:11
  TRACK 42 AUDIO
    TITLE "17:cjc029_5890"
    INDEX 01 00:36:72
  TRACK 43 AUDIO
    TITLE "0:"
    INDEX 01 00:38:31
  TRACK 44 AUDIO
    TITLE "16:cjc029_5891"
    INDEX 01 00:38:35
  TRACK 45 AUDIO
    TITLE "0:"
    INDEX 01 00:39:47
  TRACK 46 AUDIO
    TITLE "17:cjc029_5892"
    INDEX 01 00:40:30
  TRACK 47 AUDIO
    TITLE "0:"
    INDEX 01 00:41:51
  TRACK 48 AUDIO
    TITLE "16:cjc029_5893"
    INDEX 01 00:41:55
  TRACK 49 AUDIO
    TITLE "0:"
    INDEX 01 00:42:61
  TRACK 50 AUDIO
    TITLE "17:cjc029_5894"
    INDEX 01 00:43:48
  TRACK 51 AUDIO
    TITLE "0:"
    INDEX 01 00:44:71
  TRACK 52 AUDIO
    TITLE "16:cjc029_5895"
    INDEX 01 00:45:00
  TRACK 53 AUDIO
    TITLE "0:"
    INDEX 01 00:46:15
  TRACK 54 AUDIO
    TITLE "17:cjc029_5896"
    INDEX 01 00:46:72
  TRACK 55 AUDIO
    TITLE "0:"
    INDEX 01 00:48:30
  TRACK 56 AUDIO
    TITLE "16:cjc029_5897"
    INDEX 01 00:48:32
  TRACK 57 AUDIO
    TITLE "0:"
    INDEX 01 00:49:61
  TRACK 58 AUDIO
    TITLE "17:cjc029_5898"
    INDEX 01 00:50:46
  TRACK 59 AUDIO
    TITLE "0:"
    INDEX 01 00:51:36
  TRACK 60 AUDIO
    TITLE "16:cjc029_5899"
    INDEX 01 00:51:42
  TRACK 61 AUDIO
    TITLE "0:"
    INDEX 01 00:52:47
  TRACK 62 AUDIO
    TITLE "17:cjc029_5900"
    INDEX 01 00:53:31
  TRACK 63 AUDIO
    TITLE "0:"
    INDEX 01 00:54:42
  TRACK 64 AUDIO
    TITLE "16:cjc029_5901"
    INDEX 01 00:54:50
  TRACK 65 AUDIO
    TITLE "0:"
    INDEX 01 00:55:69
  TRACK 66 AUDIO
    TITLE "17:cjc029_5902"
    INDEX 01 00:56:51
  TRACK 67 AUDIO
    TITLE "0:"
    INDEX 01 00:57:41
  TRACK 68 AUDIO
    TITLE "16:cjc029_5903"
    INDEX 01 00:57:48
  TRACK 69 AUDIO
    TITLE "0:"
    INDEX 01 00:58:56
